<svg id="Layer_1" data-name="Layer 1" xmlns="http://www.w3.org/2000/svg" viewBox="0 0 615.95 198"><defs><style>.cls-1{fill:#cff1f3;}.cls-2{fill:#00445d;}.cls-3{fill:#25a8aa;}.cls-4{fill:#ed829e;}.cls-5{fill:#fff;}.cls-6{fill:#f7d16e;}</style></defs><path class="cls-1" d="M150.85,162.4c-21.8,0-26.3-8.9-26.3-16.3a12.78,12.78,0,0,1,4.4-10l.3-.2-.2-.3a12.51,12.51,0,0,1-2.6-7.9c0-7,4.2-15.4,24.5-15.4,7.6,0,13.5,1.2,17.5,3.5a13,13,0,0,1,7,11.8,11.87,11.87,0,0,1-2.5,7.7l-.2.3.3.2a12.78,12.78,0,0,1,4.3,10.2C177.15,153.5,172.65,162.4,150.85,162.4Zm0-46.9c-14.1,0-21.3,4.1-21.3,12.2a9,9,0,0,0,4.9,8.4v.3c0,.1,0,.1-.1.1h0c-4.6,1.8-6.8,4.9-6.8,9.6,0,8.7,7.8,13.1,23.1,13.1s23.1-4.4,23.1-13.1c0-4.7-2.1-7.9-6.6-9.9l-.1-.1v-.4a8.49,8.49,0,0,0,4.8-8c.3-8.1-6.9-12.2-21-12.2Z"/><path class="cls-1" d="M152.25,132.6c-3-.9-4.1-1.7-4.1-3.1a1.7,1.7,0,0,1,.1-.7c.3-.8,1.3-1.3,2.9-1.3,1.4,0,2.4.3,2.8,1a1.69,1.69,0,0,1,.3,1c0,1-.5,1.8-1.8,3l-.2.1Z"/><path class="cls-1" d="M150.75,146.9c-2,0-3.1-.7-3.1-2,0-1,.5-1.8,1.8-3h.1c3,.9,4.1,1.7,4.1,3.1S152.75,146.9,150.75,146.9Z"/><path class="cls-1" d="M186.15,162.4c-8.4,0-14.2-5.3-14.2-12.9s5.8-12.9,14.2-12.9,14.2,5.3,14.2,12.9S194.55,162.4,186.15,162.4Zm0-22.6c-6.6,0-11,3.9-11,9.7s4.4,9.7,11,9.7,11-3.9,11-9.7-4.3-9.7-11-9.7Z"/><path class="cls-1" d="M199.85,161.4a3.12,3.12,0,0,1-3.1-3.1V142.6a2.92,2.92,0,0,1,2.1-3l.3-.1v-4.4h-.3a3.13,3.13,0,0,1-2.7-3.1V119.7a3.13,3.13,0,0,1,2.7-3.1,15.24,15.24,0,0,0,7.4-2.8,3,3,0,0,1,1.8-.6h13.6a3.12,3.12,0,0,1,3.1,3.1h0v23.2l.3.1a2.92,2.92,0,0,1,2.1,3v15.6a3.12,3.12,0,0,1-3.1,3.1Zm.1-3.2h23.9V142.8h-2.3c-.1,0-.1,0-.1-.1h0V116.5h-13.4l-.1.1a19.2,19.2,0,0,1-8.3,3.2l-.3.1V132h2.9c.1,0,.1,0,.1.1h0v10.6c0,.1,0,.1-.1.1H200Z"/><path class="cls-1" d="M243.25,162.4c-8.2,0-13.8-5.3-13.8-13.1a14.94,14.94,0,0,1,3.1-9.1l.5-.6h-8.3a3.12,3.12,0,0,1-3.1-3.1V116.4a3.12,3.12,0,0,1,3.1-3.1h44.4a3.12,3.12,0,0,1,3.1,3.1v14.8a4.07,4.07,0,0,1-.5,1.8l-14.4,21.1C253.35,159.8,249.05,162.4,243.25,162.4Zm4.5-30.5c.1,0,.1,0,.1.1v.2l-10.6,7.9a11.23,11.23,0,0,0-4.6,9.1c0,6.1,4,9.9,10.5,9.9,4.7,0,8-2,11.4-6.9l14.4-21V116.4H225v20h15.2v-4.3c0-.1,0-.1.1-.1Z"/><path class="cls-2" d="M150.85,158.9c-15.2,0-22.8-4.3-22.8-12.8,0-4.5,2.1-7.6,6.6-9.3l.2-.1V136l-.2-.1a8.52,8.52,0,0,1-4.8-8.2c0-7.9,7.1-11.9,21-11.9s21,4,21,11.8a7.9,7.9,0,0,1-4.6,7.7l-.2.1v.8l.2.1c4.3,2,6.4,5.1,6.4,9.7C173.65,154.5,166.05,158.9,150.85,158.9Zm-1.5-17.3c-1.4,1.3-1.9,2.1-1.9,3.2,0,1.5,1.1,2.3,3.4,2.3s3.3-.7,3.3-2.2c0-1.8-1.7-2.6-4.4-3.4l-.2-.1Zm1.8-14.4c-2.2,0-3.3.8-3.3,2.2,0,1.8,1.7,2.6,4.4,3.4l.2.1.2-.1c1.4-1.3,1.9-2.1,1.9-3.2-.1-1.6-1.2-2.4-3.4-2.4Z"/><path class="cls-2" d="M186.15,158.9c-6.4,0-10.7-3.8-10.7-9.4s4.3-9.4,10.7-9.4,10.7,3.8,10.7,9.4S192.55,158.9,186.15,158.9Z"/><path class="cls-2" d="M200.15,157.9V143h2.4V131.6h-3V120a18.49,18.49,0,0,0,8.5-3.3h13V143h2.4v14.9Z"/><path class="cls-2" d="M243.25,158.9c-6.3,0-10.3-3.7-10.3-9.6a10.51,10.51,0,0,1,4.5-8.9l10.7-7.9v-.8h-8.4v4.4h-14.5V116.8h43.5v14.3l-14.4,21C251.05,156.9,247.85,158.9,243.25,158.9Z"/><path class="cls-1" d="M183.35,192a10.13,10.13,0,0,1-4.2-.8l-.2-.1-.2.1a2.66,2.66,0,0,1-1.2.3h-8.4a2.65,2.65,0,0,1-2.6-2.6v-7.8a2.69,2.69,0,0,1,.5-1.5l.1-.2-.1-.2a7.58,7.58,0,0,1-.8-3.6c0-4.7,3.6-8.1,8.9-8.1a10.88,10.88,0,0,1,4,.7l.2.1.2-.1a2.66,2.66,0,0,1,1.2-.3h8.4a2.65,2.65,0,0,1,2.6,2.6v7.2a2.66,2.66,0,0,1-.3,1.2l-.1.2.1.2a8.56,8.56,0,0,1,1.2,4.4C192.45,188.7,189,192,183.35,192Zm-5.4-3.9a8.32,8.32,0,0,0,5.3,1.6c4.4,0,7-2.3,7-6.1s-2.6-5.8-9.2-6.8h1a11.67,11.67,0,0,1,5.2,1.2h2.1v-7.9h-9.3l-.2,1.2a7.24,7.24,0,0,0-4.9-1.6c-4,0-6.7,2.3-6.7,5.9s2.9,5.9,9.1,6.7h-.8a11.14,11.14,0,0,1-5.9-1.6l-.1-.1h-2v8.6h9.2Z"/><path class="cls-1" d="M202.45,191.6a.9.9,0,0,1-.5-.1h-.1a.9.9,0,0,0-.5.1h-11a2.65,2.65,0,0,1-2.6-2.6v-6.9a2.44,2.44,0,0,1,1.4-2.3l.5-.2-.3-.4a2.72,2.72,0,0,1-.6-1.7v-6.9a2.65,2.65,0,0,1,2.6-2.6h17.1a2.58,2.58,0,0,1,2.5,1.9l2.7,9.8.2.1a2.67,2.67,0,0,1,1.5,2.4v6.9a2.65,2.65,0,0,1-2.6,2.6Zm-.4-2.3h11v-7.6h-1.2l-3.2-11.5h-17.8v7.6h1.4l-1.1,3.9H190v7.6h11.8v-6.8H200l.1-.6H202Zm-1.4-11,.4-1.8.4,1.8Z"/><path class="cls-1" d="M216.35,191.6a2.65,2.65,0,0,1-2.6-2.6v-6.5h-2.3a2.65,2.65,0,0,1-2.6-2.6v-9.3a2.65,2.65,0,0,1,2.6-2.6h23.1a2.65,2.65,0,0,1,2.6,2.6h0v9.3a2.65,2.65,0,0,1-2.6,2.6h-2.3v6.4a2.65,2.65,0,0,1-2.6,2.6Zm-.4-2.3h14.2v-7.6h-2.4V177h.3v3.3H235V170.2h-23.9v10.1H218V177h.3v4.7h-2.4Z"/><path class="cls-3" d="M183.35,189a8.22,8.22,0,0,1-5.2-1.8l-.1-.1h-.6l-.2,1.5h-7.7v-7.1h1a13.3,13.3,0,0,0,6.2,1.6,5.46,5.46,0,0,0,2.8-.6l.2-.1v-.7h-.4c-7.1-.6-10.2-2.5-10.2-6.1,0-3.1,2.2-5.1,5.9-5.1a7.42,7.42,0,0,1,4.9,1.8l.1.1h.6l.2-1.5h7.7v6.4h-1a11.72,11.72,0,0,0-5.5-1.3,9.29,9.29,0,0,0-2.9.5l-.2.1v.7h.4c7.5.8,10.3,2.5,10.3,6.2S187.15,189,183.35,189Z"/><path class="cls-3" d="M202.85,188.6v-7.5h-3.4l-.3,2.2h1.9v5.3h-10.2v-6.1h1l1.5-5.4h-1.6V171h16.4l3.2,11.5h1v6.1Zm-3.3-9.5h2.8l-1-4.5h-.7Z"/><polygon class="cls-3" points="216.75 188.6 216.75 182.5 219.05 182.5 219.05 176.2 217.15 176.2 217.15 179.5 211.85 179.5 211.85 171 234.15 171 234.15 179.5 228.85 179.5 228.85 176.2 226.95 176.2 226.95 182.5 229.35 182.5 229.35 188.6 216.75 188.6"/><path class="cls-1" d="M367,146.9c-2,0-3.1-.7-3.1-2,0-1,.5-1.8,1.8-3h.1c3,.9,4.1,1.7,4.1,3.1S369,146.9,367,146.9Z"/><path class="cls-1" d="M368.45,132.6c-3-.9-4.1-1.7-4.1-3.1s1-2,3-2,3.1.7,3.1,2c0,1-.5,1.8-1.8,3h-.1Z"/><path class="cls-1" d="M367.05,162.4c-21.8,0-26.3-8.9-26.3-16.3a12.47,12.47,0,0,1,4.4-10l.3-.2-.3-.4a12.51,12.51,0,0,1-2.6-7.9c0-7,4.2-15.4,24.5-15.4,7.6,0,13.5,1.2,17.5,3.5a13,13,0,0,1,7,11.8,11.87,11.87,0,0,1-2.5,7.7l-.2.3.3.2a12.78,12.78,0,0,1,4.3,10.2C393.45,153.5,388.85,162.4,367.05,162.4Zm0-46.9c-14.1,0-21.3,4.1-21.3,12.2a9,9,0,0,0,4.9,8.4c.1,0,.1,0,.1.1h0v.2c0,.1,0,.1-.1.1h0c-4.6,1.8-6.8,4.9-6.8,9.6,0,8.7,7.8,13.1,23.1,13.1s23.1-4.4,23.1-13.1c0-4.7-2.2-7.9-6.6-9.9l-.1-.1v-.3c0-.1,0-.1.1-.1a8.49,8.49,0,0,0,4.8-8C388.35,119.6,381.15,115.5,367.05,115.5Z"/><path class="cls-1" d="M402.35,162.4c-8.4,0-14.2-5.3-14.2-12.9s5.8-12.9,14.2-12.9,14.2,5.3,14.2,12.9S410.75,162.4,402.35,162.4Zm0-22.6c-6.6,0-11,3.9-11,9.7s4.4,9.7,11,9.7,11-3.9,11-9.7-4.4-9.7-11-9.7Z"/><path class="cls-1" d="M416,161.4a3.12,3.12,0,0,1-3.1-3.1V142.6a2.92,2.92,0,0,1,2.1-3l.3-.1v-4.4H415a3.13,3.13,0,0,1-2.7-3.1V119.7a3.13,3.13,0,0,1,2.7-3.1,15.24,15.24,0,0,0,7.4-2.8,3,3,0,0,1,1.8-.6h13.5a3.12,3.12,0,0,1,3.1,3.1v23.2l.3.1a2.92,2.92,0,0,1,2.1,3v15.6a3.12,3.12,0,0,1-3.1,3.1Zm.1-3.2H440V142.8h-2.3c-.1,0-.1,0-.1-.1V116.5h-13.4l-.1.1a19.2,19.2,0,0,1-8.3,3.2l-.3.1V132h2.9c.1,0,.1,0,.1.1v10.6c0,.1,0,.1-.1.1h-2.3Z"/><path class="cls-1" d="M465.35,162.4c-21.8,0-26.3-8.9-26.3-16.3a12.78,12.78,0,0,1,4.4-10l.3-.2-.2-.3a12.51,12.51,0,0,1-2.6-7.9c0-7,4.2-15.4,24.5-15.4,7.6,0,13.5,1.2,17.5,3.5a13,13,0,0,1,7,11.8,11.87,11.87,0,0,1-2.5,7.7l-.2.3.3.2a12.78,12.78,0,0,1,4.3,10.2C491.75,153.5,487.15,162.4,465.35,162.4Zm0-46.9c-14.1,0-21.3,4.1-21.3,12.2a9,9,0,0,0,4.9,8.4l.1.1v.2c0,.1,0,.1-.1.1-4.6,1.8-6.8,4.9-6.8,9.6,0,8.7,7.8,13.1,23.1,13.1s23.1-4.4,23.1-13.1a9.77,9.77,0,0,0-5-9.1,10.93,10.93,0,0,0-1.5-.8l-.1-.1v-.3c0-.1,0-.1.1-.1a8.49,8.49,0,0,0,4.8-8C486.65,119.6,479.45,115.5,465.35,115.5Z"/><path class="cls-1" d="M466.75,132.6c-3-.9-4.1-1.7-4.1-3.1s1-2,3-2,3.1.7,3.1,2c0,1-.5,1.8-1.8,3h-.1Z"/><path class="cls-1" d="M465.25,146.9c-2,0-3.1-.7-3.1-2,0-1,.5-1.8,1.8-3h.1c3,.9,4.1,1.7,4.1,3.1S467.25,146.9,465.25,146.9Z"/><path class="cls-2" d="M367.05,158.9c-15.1,0-22.8-4.3-22.8-12.8q0-6.75,6.6-9.3l.2-.1V136l-.2-.1a8.62,8.62,0,0,1-4.8-8.2c0-7.9,7.1-11.9,21-11.9s21,4,21,11.8a7.9,7.9,0,0,1-4.6,7.7l-.2.1v.8l.2.1c4.3,2,6.4,5.1,6.4,9.7C390,154.5,382.25,158.9,367.05,158.9Zm-1.5-17.3c-1.4,1.3-1.9,2.1-1.9,3.2,0,1.5,1.1,2.3,3.3,2.3s3.3-.8,3.3-2.2c0-1.8-1.7-2.6-4.3-3.4l-.2-.1Zm1.8-14.4c-2.2,0-3.3.8-3.3,2.2,0,1.8,1.7,2.6,4.3,3.4l.2.1.2-.1c1.4-1.3,1.9-2.1,1.9-3.2Q370.65,127.2,367.35,127.2Z"/><path class="cls-2" d="M402.35,158.9c-6.4,0-10.7-3.8-10.7-9.4s4.3-9.4,10.7-9.4,10.8,3.8,10.8,9.4S408.85,158.9,402.35,158.9Z"/><path class="cls-1" d="M402.35,159.4c-6.7,0-11.2-4-11.2-9.9s4.5-9.9,11.2-9.9,11.2,4,11.2,9.9S409.15,159.4,402.35,159.4Zm0-19.6c-6.6,0-11,3.9-11,9.7s4.4,9.7,11,9.7,11-3.9,11-9.7-4.4-9.7-11-9.7Z"/><path class="cls-2" d="M416.45,157.9V143h2.4V131.6h-3V120a18.49,18.49,0,0,0,8.5-3.3h13V143h2.4v14.9Z"/><path class="cls-2" d="M465.35,158.9c-15.2,0-22.8-4.3-22.8-12.8q0-6.75,6.6-9.3l.2-.1V136l-.2-.1a8.62,8.62,0,0,1-4.8-8.2c0-7.9,7.1-11.9,21-11.9s21,4,21,11.8a7.9,7.9,0,0,1-4.6,7.7l-.2.1v.8l.2.1c4.3,2,6.4,5.1,6.4,9.7C488.25,154.5,480.55,158.9,465.35,158.9Zm-1.6-17.3c-1.4,1.3-1.9,2.1-1.9,3.2,0,1.5,1.1,2.3,3.3,2.3s3.3-.8,3.3-2.2c0-1.8-1.7-2.6-4.3-3.4l-.2-.1Zm1.9-14.4c-2.2,0-3.3.8-3.3,2.2,0,1.8,1.7,2.6,4.3,3.4l.2.1.2-.1c1.4-1.3,1.9-2.1,1.9-3.2q0-2.4-3.3-2.4Z"/><path class="cls-1" d="M397.05,192a10.13,10.13,0,0,1-4.2-.8l-.2-.1-.2.1a2.66,2.66,0,0,1-1.2.3h-8.4a2.65,2.65,0,0,1-2.6-2.6v-7.8a2.69,2.69,0,0,1,.5-1.5l.1-.2-.1-.2a7.58,7.58,0,0,1-.8-3.6c0-4.7,3.7-8.1,8.9-8.1a10.36,10.36,0,0,1,3.9.7l.2.1.2-.1a2.66,2.66,0,0,1,1.2-.3h8.4a2.65,2.65,0,0,1,2.6,2.6v7.2a2.66,2.66,0,0,1-.3,1.2l-.1.2.1.2a8.56,8.56,0,0,1,1.2,4.4C406.25,188.7,402.65,192,397.05,192Zm-5.3-3.9a8.32,8.32,0,0,0,5.3,1.6c4.4,0,7-2.3,7-6.1s-2.6-5.8-9.2-6.8h1a11.67,11.67,0,0,1,5.2,1.2h2.1v-7.9H394l-.2,1.2a7.24,7.24,0,0,0-4.9-1.6c-4,0-6.7,2.3-6.7,5.9s2.9,5.9,9.1,6.7h-.8a11.14,11.14,0,0,1-5.9-1.6l-.1-.1h-2v8.6h9.2Z"/><path class="cls-1" d="M414.45,192c-6.1,0-12.2-1.2-12.2-10.1v-2.3l-.2-.1a2.52,2.52,0,0,1-.9-2v-6.9a2.65,2.65,0,0,1,2.6-2.6h21.4a2.65,2.65,0,0,1,2.6,2.6v6.9a2.52,2.52,0,0,1-.9,2l-.1.1v2.3C426.75,190.8,420.45,192,414.45,192Zm-10-10.1c0,5.7,2.7,7.9,10,7.9s10-2.1,10-7.9v-4.1h1.1v-7.6h-11.4v7.6h1.1v2.9c0,.8-.3.8-.7.8s-.7-.1-.7-.8V170.2h-10.5v7.6h1.1Z"/><path class="cls-1" d="M438.35,191.6a4.25,4.25,0,0,1-1.1-.2l-.2-.1-.2.1a1.8,1.8,0,0,1-1,.2h-9.6a2.65,2.65,0,0,1-2.6-2.6v-6.9a2.52,2.52,0,0,1,.9-2l.1-.1v-.4l-.1-.2a2.52,2.52,0,0,1-.9-2v-6.9a2.65,2.65,0,0,1,2.6-2.6h13a2.92,2.92,0,0,1,.9.2h.2a2.92,2.92,0,0,1,.9-.2h8.5a2.65,2.65,0,0,1,2.6,2.6v6.9a2.52,2.52,0,0,1-.9,2l-.1.1v9.4a2.65,2.65,0,0,1-2.6,2.6l-10.4.1Zm-.3-2.3h11.2V177.8h1.1v-7.6h-9.3v5.4l-1.5-5.4H426v7.6h1.1v3.9H426v7.6h10.4v-6.1Zm-2.8-6.8v-3l.9,3Z"/><path class="cls-4" d="M397.05,189a8.22,8.22,0,0,1-5.2-1.8l-.1-.1h-.6l-.2,1.5h-7.7v-7.1h1a13.3,13.3,0,0,0,6.2,1.6,5.46,5.46,0,0,0,2.8-.6l.2-.1v-.7h-.3c-7.1-.6-10.2-2.5-10.2-6.1,0-3.1,2.2-5.1,5.9-5.1a7.42,7.42,0,0,1,4.9,1.8l.1.1h.6l.2-1.5h7.7v6.4h-1a11.72,11.72,0,0,0-5.5-1.3,9.29,9.29,0,0,0-2.9.5l-.2.1v.7h.3c7.5.8,10.3,2.5,10.3,6.2S401,189,397.05,189Z"/><path class="cls-4" d="M414.45,189c-6.9,0-9.2-1.8-9.2-7.1V177h-1v-6.1h9v9.7c0,1.1.5,1.6,1.5,1.6s1.5-.5,1.5-1.6v-3.7h-1.1v-6.1H425v6.1h-1v4.9C423.75,187.2,421.45,189,414.45,189Z"/><polygon class="cls-4" points="438.65 188.6 435.25 176.7 434.45 176.7 434.45 183.3 435.55 183.3 435.55 188.6 426.75 188.6 426.75 182.5 427.75 182.5 427.75 177.1 426.75 177.1 426.75 171 438.95 171 440.95 178.5 441.75 178.5 441.75 171 449.55 171 449.55 177.1 448.45 177.1 448.45 188.6 438.65 188.6"/><polygon class="cls-2" points="7.95 97.2 7.95 2 107.45 2 107.45 56.5 95.65 56.5 95.65 71.8 80.45 71.8 80.45 97.2 7.95 97.2"/><path class="cls-2" d="M137.15,98.7c-21.1,0-49.2-4.3-49.2-41.4v-2h-3.9V2h106.4V55.3h-3.9v2C186.45,94.4,158.35,98.7,137.15,98.7Z"/><path class="cls-2" d="M250.55,98.7a56.3,56.3,0,0,1-15.3-1.9v.3h-67.9V2h107.4V38.5l1.5-.5V92.2l-8.5,3.7C263.45,97.8,257.85,98.7,250.55,98.7Z"/><path class="cls-2" d="M304.75,98.7c-21.1,0-49.2-4.3-49.2-41.4v-2h-3.9V2h106.4V55.3h-3.9v2C354,94.4,325.85,98.7,304.75,98.7Z"/><path class="cls-2" d="M386,98.7c-32.5,0-52.7-18.8-52.7-49.2S353.45.4,386,.4s52.7,18.8,52.7,49.2S418.45,98.7,386,98.7Z"/><path class="cls-2" d="M497.15,98.7a56.3,56.3,0,0,1-15.3-1.9v.3H414V2h107.3V38.5l1.5-.5V92.2l-8.5,3.7C510,97.8,504.35,98.7,497.15,98.7Z"/><polygon class="cls-2" points="499.15 97.2 499.15 43.8 502.25 43.8 502.25 2 589.35 2 600.95 43.8 608.25 43.8 608.25 97.2 499.15 97.2"/><polygon class="cls-5" points="11.45 93.6 11.45 5.5 103.95 5.5 103.95 52.9 92.15 52.9 92.15 68.2 76.85 68.2 76.85 93.6 11.45 93.6"/><path class="cls-5" d="M137.15,95.2c-16,0-26.4-2.6-33.8-8.3-8-6.2-11.9-15.9-11.9-29.6V51.7h-3.9V5.5H187V51.7h-3.9v5.6C183,90.9,158.45,95.2,137.15,95.2Z"/><path class="cls-5" d="M250.55,95.2c-7.4,0-13.6-1.1-18.8-3.3v1.8H171V5.5h100.2V43.4l1.5-.5v47l-6.4,2.8C262.45,94.4,257.35,95.2,250.55,95.2Z"/><path class="cls-5" d="M304.75,95.2c-16,0-26.4-2.6-33.8-8.3-8-6.2-11.9-15.9-11.9-29.6V51.7h-3.9V5.5h99.3V51.7h-3.9v5.6C350.45,90.9,326.05,95.2,304.75,95.2Z"/><path class="cls-5" d="M386,95.2c-15,0-27-4-35.6-11.8-8.8-8-13.5-19.7-13.5-33.8s4.7-25.8,13.5-33.8S371,3.9,386,3.9s27,4,35.7,11.9,13.5,19.7,13.5,33.8-4.7,25.8-13.4,33.8C413,91.2,401,95.2,386,95.2Z"/><path class="cls-5" d="M497.15,95.2c-7.4,0-13.6-1.1-18.8-3.3v1.8h-60.8V5.5h100.2V43.4l1.5-.5v47L513,92.7C509.05,94.4,503.85,95.2,497.15,95.2Z"/><polygon class="cls-5" points="502.65 93.6 502.65 47.4 505.85 47.4 505.85 5.5 586.65 5.5 598.25 47.4 604.75 47.4 604.75 93.6 502.65 93.6"/><polygon class="cls-2" points="18.95 86.1 18.95 54.9 22.95 54.9 22.95 44.3 18.95 44.3 18.95 13 96.45 13 96.45 45.4 84.65 45.4 84.65 60.8 69.45 60.8 69.45 86.1 18.95 86.1"/><path class="cls-2" d="M137.15,87.7c-27.5,0-38.2-8.5-38.2-30.4v-13h-3.9V13h84.3V44.3h-3.9V57.4C175.45,79.2,164.65,87.7,137.15,87.7Zm-.1-33.5h1.2a4.87,4.87,0,0,0,.1-1.2V44.3h-1.5V53C137,53.4,137,53.8,137.05,54.2Z"/><path class="cls-2" d="M250.55,87.7c-12.6,0-20.5-3.3-26.3-11.4v9.9h-45.8V54.9h3.9V44.3h-3.9V13h85.2V44.3H257l-3.8,4.1,2.9,4.4c1.2,1.8,2,2.1,3.6,2.1a5.7,5.7,0,0,0,1.3-.1l4.2-1.4V85.1l-1.9.8C260.45,87.1,256.25,87.7,250.55,87.7Z"/><path class="cls-2" d="M304.75,87.7c-27.5,0-38.2-8.5-38.2-30.4v-13h-3.9V13H347V44.3h-3.9V57.4C343,79.2,332.25,87.7,304.75,87.7Zm-.2-33.5h1.2a4.87,4.87,0,0,0,.1-1.2V44.3h-1.5V53c.1.4.1.8.2,1.2Z"/><path class="cls-2" d="M386,87.7c-26.5,0-41.7-13.9-41.7-38.1s15.3-38.2,41.7-38.2,41.7,13.9,41.7,38.1S412.45,87.7,386,87.7Zm0-42.8c-.5,0-1.8,0-1.8,4.7s1.2,4.7,1.8,4.7,1.8,0,1.8-4.7S386.55,44.9,386,44.9Z"/><path class="cls-2" d="M497.15,87.7c-12.6,0-20.5-3.3-26.3-11.4v9.9H425V54.9h4V44.3h-3.9V13h85.2V44.3h-6.7l-3.9,4.1,2.9,4.4c1.2,1.8,1.9,2.1,3.7,2.1a5.7,5.7,0,0,0,1.3-.1l4.2-1.4V85.1l-1.9.8C507.05,87.1,502.75,87.7,497.15,87.7Z"/><polygon class="cls-2" points="510.15 86.1 510.15 54.9 514.85 54.9 517.85 44.3 513.35 44.3 513.35 13 580.95 13 592.55 54.9 597.25 54.9 597.25 86.1 510.15 86.1"/><path class="cls-6" d="M22.15,58h3.9V41.1h-3.9v-25h71.1V42.3H63.55V38.2h-5.9v7.5h23.8v12H57.65V61h8.5V83H22.05l.1-25Z"/><path class="cls-6" d="M102.15,57.3V41.1h-3.9v-25h35.6V53c0,3.6,1.7,4.4,3.9,4.4s3.9-.8,3.9-4.4V41.1h-3.9v-25h38.5v25h-3.9V57.3c0,20.1-9.1,27.2-35.1,27.2S102.15,77.5,102.15,57.3Z"/><path class="cls-6" d="M223.65,69.1l-6.1-12.3h-.4v3.3a22.32,22.32,0,0,0,4,13.2v9.6h-39.5v-25h3.9V41.1h-3.9v-25h39.5v22h-4v8.5h.4l7.5-8.5v-22h35.5v25h-4.9l-6.4,6.9,4.2,6.5c1.7,2.6,3.3,3.5,6.3,3.5a9.08,9.08,0,0,0,2.3-.3V82.9c-2.5,1.1-6.6,1.6-11.4,1.6C236.25,84.5,229.15,80.1,223.65,69.1Z"/><path class="cls-6" d="M269.65,57.3V41.1h-3.9v-25h35.6V53c0,3.6,1.7,4.4,3.9,4.4s3.9-.8,3.9-4.4V41.1h-3.9v-25h38.5v25h-3.9V57.3c0,20.1-9.1,27.2-35.1,27.2S269.65,77.5,269.65,57.3Z"/><path class="cls-6" d="M347.45,49.6c0-22.4,13.9-35,38.5-35s38.5,12.6,38.5,35-13.9,35-38.5,35S347.45,72,347.45,49.6Zm43.4,0c0-5.3-1.6-7.9-4.9-7.9s-4.9,2.5-4.9,7.9,1.6,7.8,4.9,7.8S390.85,54.9,390.85,49.6Z"/><path class="cls-6" d="M470.15,69.1l-6.1-12.3h-.4v3.3a23,23,0,0,0,3.9,13.2v9.6H428v-25h4V41.1h-3.9v-25h39.5v22h-3.9v8.5h.4l7.5-8.5v-22h35.5v25h-4.9l-6.4,6.9,4.2,6.5c1.7,2.6,3.3,3.5,6.3,3.5a9.08,9.08,0,0,0,2.3-.3V82.9c-2.5,1.1-6.6,1.6-11.4,1.6C482.75,84.5,475.65,80.1,470.15,69.1Z"/><path class="cls-6" d="M513.35,58h3.9L522,41.1h-5.5v-25h62.1L590.15,58h3.9V83h-37V55.9h-9.7l-.8,5.1h6.7V83h-39.9Zm42.1-12.4-3.1-13.5H552l-3.2,13.5Z"/><path class="cls-6" d="M303,154.4l3.1-12.6h-7.9l-2.3,3.9H290l1.8-8.2v-.4l-1.8-8.2h5.9l2.3,3.9h7.9L303,120.2h6.5l6.2,12.6h5.6a7.55,7.55,0,0,1,4.6,1.6l.9.7a2.66,2.66,0,0,1,1.1,2.2v.1a2.66,2.66,0,0,1-1.1,2.2l-.9.7a7.49,7.49,0,0,1-4.5,1.6h-5.6l-6.2,12.6Z"/><path class="cls-2" d="M309.55,155.2h0l-6.6-.1a.86.86,0,0,1-.6-.3.66.66,0,0,1-.1-.6l2.9-11.7h-6.5l-2.1,3.5a.82.82,0,0,1-.6.4h-6a.86.86,0,0,1-.6-.3.66.66,0,0,1-.1-.6l1.7-8.1v-.2l-1.8-8.1c0-.2,0-.5.1-.6a.71.71,0,0,1,.6-.3h5.9a.55.55,0,0,1,.6.4l2.1,3.5H305l-2.9-11.7a.61.61,0,0,1,.1-.6.71.71,0,0,1,.6-.3h6.5a1,1,0,0,1,.7.4l6,12.2h5.1a8.15,8.15,0,0,1,5.1,1.8l.9.7a3.37,3.37,0,0,1,1.4,2.8v.1a3.37,3.37,0,0,1-1.4,2.8l-.9.7a9,9,0,0,1-5,1.8h-5.1l-6,12.2A.77.77,0,0,1,309.55,155.2Zm-5.6-1.6,5.2.1,6-12.2a.67.67,0,0,1,.7-.4h5.6a6.28,6.28,0,0,0,4-1.4l.9-.7a2.09,2.09,0,0,0,.8-1.6v-.1a2.09,2.09,0,0,0-.8-1.6l-.9-.7a6.77,6.77,0,0,0-4.1-1.4h-5.6a1,1,0,0,1-.7-.4l-6-12.2h-5l2.9,11.7a.61.61,0,0,1-.1.6.71.71,0,0,1-.6.3h-7.9a.55.55,0,0,1-.6-.4l-2.1-3.5H291l1.6,7.3v.8l-1.6,7.3h4.5l2.1-3.5a.82.82,0,0,1,.6-.4h7.9a.86.86,0,0,1,.6.3.66.66,0,0,1,.1.6Z"/></svg>